<svg width="512" height="512" viewBox="0 0 512 512" fill="none" xmlns="http://www.w3.org/2000/svg">
  <defs>
    <linearGradient id="banana_gradient" x1="100" y1="100" x2="400" y2="400" gradientUnits="userSpaceOnUse">
      <stop offset="0%" stop-color="#FCD34D" /> <!-- Amber-300 / Banana Yellow -->
      <stop offset="100%" stop-color="#F59E0B" /> <!-- Amber-500 / Rich Orange-Yellow -->
    </linearGradient>
    <filter id="soft_shadow" x="-50%" y="-50%" width="200%" height="200%">
      <feDropShadow dx="0" dy="8" stdDeviation="12" flood-color="#000000" flood-opacity="0.15"/>
    </filter>
  </defs>

  <!-- Background Shape (Abstract Document) -->
  <rect x="126" y="86" width="260" height="340" rx="40" fill="url(#banana_gradient)" filter="url(#soft_shadow)" />

  <!-- White Paper Overlay (Content Area) -->
  <rect x="166" y="126" width="180" height="260" rx="20" fill="#FFFFFF" fill-opacity="0.9" />

  <!-- Data Lines (Abstract Text/Chart) -->
  <rect x="196" y="170" width="120" height="16" rx="8" fill="#F59E0B" fill-opacity="0.3" />
  <rect x="196" y="210" width="80" height="16" rx="8" fill="#F59E0B" fill-opacity="0.2" />
  
  <!-- Chart Graphic (Bottom) -->
  <path d="M196 330 L196 300 A 4 4 0 0 1 204 300 L204 330 A 4 4 0 0 1 196 330" fill="#F59E0B" />
  <path d="M226 330 L226 280 A 4 4 0 0 1 234 280 L234 330 A 4 4 0 0 1 226 330" fill="#F59E0B" />
  <path d="M256 330 L256 310 A 4 4 0 0 1 264 310 L264 330 A 4 4 0 0 1 256 330" fill="#F59E0B" />
  <path d="M286 330 L286 260 A 4 4 0 0 1 294 260 L294 330 A 4 4 0 0 1 286 330" fill="#F59E0B" />

  <!-- Corner Fold / Accent (Top Right of container) -->
  <path d="M386 86 L386 126 A 20 20 0 0 0 366 146 L326 146 L386 86" fill="#FBBF24" fill-opacity="0.5" />

</svg>
